# AST/ASF file generated using VICON BodyLanguage
# -----------------------------------------------
:version 1.10
:name VICON
:units
  mass 1.0
  length 0.45
  angle deg
:documentation
   .ast/.asf automatically generated from VICON data using
   VICON BodyBuilder and BodyLanguage model FoxedUp or BRILLIANT.MOD
:root
   order TX TY TZ RX RY RZ
   axis XYZ
   position 0 0 0  
   orientation 0 0 0 
:bonedata
  begin
     id 1 
     name lhipjoint
     direction 0.567149 -0.783011 0.255413 
     length 2.28399 
     axis 0 0 0  XYZ
  end
  begin
     id 2 
     name lfemur
     direction 0.34202 -0.939693 0  
     length 7.34031  
     axis 0 0 20  XYZ
    dof rx ry rz
    limits (-160.0 20.0)
           (-70.0 70.0)
           (-60.0 70.0)
  end
  begin
     id 3 
     name ltibia
     direction 0.34202 -0.939693 0   
     length 6.9833   
     axis 0 0 20   XYZ
    dof rx
    limits (-10.0 170.0)
  end
  begin
     id 4 
     name lfoot
     direction 0.136498 -0.375025 0.91691   
     length 2.33665   
     axis -90 7.62852e-016 20   XYZ
    dof rx rz
    limits (-45.0 90.0)
           (-70.0 20.0)
  end
  begin
     id 5 
     name ltoes
     direction 1.5367e-011 -4.21617e-011 1   
     length 1.15039   
     axis -90 7.62852e-016 20   XYZ
    dof rx
    limits (-90.0 20.0)
  end
  begin
     id 6 
     name rhipjoint
     direction -0.602854 -0.758518 0.247423   
     length 2.35775  
     axis 0 0 0  XYZ 
  end
  begin
     id 7 
     name rfemur
     direction -0.34202 -0.939693 0   
     length 7.43932   
     axis 0 0 -20   XYZ
    dof rx ry rz
    limits (-160.0 20.0)
           (-70.0 70.0)
           (-70.0 60.0)
  end
  begin
     id 8 
     name rtibia
     direction -0.34202 -0.939693 0   
     length 7.11893   
     axis 0 0 -20   XYZ
    dof rx
    limits (-10.0 170.0)
 end
 begin
     id 9 
     name rfoot
     direction -0.131771 -0.362037 0.922803   
     length 2.53019  
     axis -90 -7.62852e-016 -20   XYZ
    dof rx rz
    limits (-45.0 90.0)
           (-20.0 70.0)
  end
  begin
     id 10 
     name rtoes
     direction -1.53733e-011 -4.21932e-011 1   
     length 1.24596   
     axis -90 -7.62852e-016 -20   XYZ
    dof rx
    limits (-90.0 20.0)
  end
  begin
     id 11 
     name lowerback
     direction 0.0235427 0.999023 -0.0374125   
     length 2.21768   
     axis 0 0 0   XYZ
    dof rx ry rz
    limits (-20.0 45.0)
           (-30.0 30.0)
           (-30.0 30.0)
  end
  begin
     id 12 
     name upperback
     direction 0.0302156 0.996818 -0.073759   
     length 2.20352   
     axis 0 0 0   XYZ
    dof rx ry rz
    limits (-20.0 45.0)
           (-30.0 30.0)
           (-30.0 30.0)
  end
  begin
     id 13 
     name thorax
     direction 0.0187169 0.998235 -0.0563532   
     length 2.22103   
     axis 0 0 0   XYZ
    dof rx ry rz
    limits (-20.0 45.0)
           (-30.0 30.0)
           (-30.0 30.0)
  end
  begin
     id 14 
     name lowerneck
     direction -0.119528 0.987423 0.103481   
     length 1.72948   
     axis 0 0 0   XYZ
    dof rx ry rz
    limits (-20.0 45.0)
           (-30.0 30.0)
           (-30.0 30.0)
  end
  begin
     id 15 
     name upperneck
     direction 0.248049 0.963095 -0.104496   
     length 1.74979   
     axis 0 0 0   XYZ
    dof rx ry rz
    limits (-20.0 45.0)
           (-30.0 30.0)
           (-30.0 30.0)
  end
  begin
     id 16
     name head
     direction 0.0903589 0.994284 -0.056876  
     length 1.78268  
     axis 0 0 0   XYZ
    dof rx ry rz
    limits (-20.0 45.0)
           (-30.0 30.0)
           (-30.0 30.0)
  end
  begin
     id 17 
     name lclavicle
     direction 0.946008 0.242039 -0.215608  
     length 3.80783  
     axis 0 0 0   XYZ
    dof ry rz
    limits (-20.0 10.0)
           (0.0 20.0)
  end
  begin
     id 18 
     name lhumerus
     direction 1 -4.48991e-011 -2.25695e-027   
     length 4.83125   
     axis 180 -30 -90   XYZ
    dof rx ry rz
    limits (-60.0 90.0)
           (-90.0 90.0)
           (-90.0 90.0)
  end
  begin
     id 19
     name lradius
     direction 0.999991 0.00366712 -0.00211721   
     length 3.00391   
     axis 180 -30 -90   XYZ
    dof rx
    limits (-10.0 170.0)
  end
  begin
     id 20
     name lwrist
     direction 0.999991 0.00393016 -0.00141978   
     length 1.50195   
     axis -1.00488e-014 90 90   XYZ
    dof ry
    limits (-180.0 0.0)
 end
  begin
     id 21 
     name lhand
     direction 1 -4.49123e-011 2.72098e-026   
     length 1.2717   
     axis -1.73687e-014 90 90   XYZ
    dof rx rz
    limits (-90.0 90.0)
           (-45.0 45.0)
  end
  begin
     id 22 
     name lfingers
     direction 1 -4.48678e-011 5.4479e-026   
     length 1.02528   
     axis -3.47372e-014 90 90   XYZ
    dof rx
    limits (0.0 90.0)
  end
  begin
     id 23
     name lthumb
     direction 0.707107 -6.34851e-011 0.707107   
     length 1.4721   
     axis -90 45 -1.62303e-014   XYZ
    dof rx rz
    limits (-45.0 45.0)
           (-45.0 45.0)
  end
  begin
     id 24 
     name rclavicle
     direction -0.981723 0.189447 -0.0181673   
     length 3.74989  
     axis 0 0 0   XYZ 
    dof ry rz
    limits (-10.0 20.0)
           (-20.0 0.0)
  end
  begin
     id 25 
     name rhumerus
     direction -1 -4.48985e-011 2.38206e-027  
     length 4.61118   
     axis 180 30 90   XYZ
    dof rx ry rz
    limits (-90.0 60.0)
           (-90.0 90.0)
           (-90.0 90.0)
  end
  begin
     id 26 
     name rradius
     direction -1 -4.48977e-011 7.41019e-027   
     length 2.91491   
     axis 180 30 90   XYZ
    dof rx
    limits (-10.0 170.0)
  end
  begin
     id 27 
     name rwrist
     direction -1 -4.48549e-011 1.3624e-026   
     length 1.45745   
     axis -1.00488e-014 -90 -90   XYZ
    dof ry
    limits (-180.0 0.0)
  end
  begin
     id 28
     name rhand
     direction -1 -4.49107e-011 2.72109e-026   
     length 1.30769   
     axis -1.73687e-014 -90 -90   XYZ
    dof rx rz
    limits (-90.0 90.0)
           (-45.0 45.0)
  end
  begin
     id 29
     name rfingers
     direction -1 -4.48919e-011 5.44468e-026   
     length 1.05429   
     axis -3.47372e-014 -90 -90   XYZ
    dof rx
    limits (0.0 90.0)
  end
  begin
     id 30
     name rthumb
     direction -0.707107 -6.35315e-011 0.707107   
     length 1.51376   
     axis -90 -45 1.62303e-014   XYZ
    dof rx rz
    limits (-45.0 45.0)
           (-45.0 45.0)
  end
:hierarchy
  begin
    root lhipjoint rhipjoint lowerback
    lhipjoint lfemur
    lfemur ltibia
    ltibia lfoot
    lfoot ltoes
    rhipjoint rfemur
    rfemur rtibia
    rtibia rfoot
    rfoot rtoes
    lowerback upperback
    upperback thorax
    thorax lowerneck lclavicle rclavicle
    lowerneck upperneck
    upperneck head
    lclavicle lhumerus
    lhumerus lradius
    lradius lwrist
    lwrist lhand lthumb
    lhand lfingers
    rclavicle rhumerus
    rhumerus rradius
    rradius rwrist
    rwrist rhand rthumb
    rhand rfingers
  end

#!OML:ASF X:\für Bonn\!DataBase\2005_08_11_Bastian_Final\c3d\Bastian.ASF
:FULLY-SPECIFIED
:DEGREES
16
root 4.09472 16.22 -8.53455 168.936 1.19141 -182.243
lowerback 7.37645 -7.30094 -4.90255
upperback 7.72678 -9.18192 0.347948
thorax 4.84011 -4.52319 3.29293
lowerneck -6.29513 -2.87099 -3.64024
upperneck -2.79772 -3.40746 5.83973
head 0.376174 -1.55521 2.39169
rclavicle 4.7758e-014 -1.59028e-015
rhumerus -4.6046 37.6685 -89.1035
rradius 118.835
rwrist 6.21555
rhand -25.5787 12.3405
rfingers 7.12502
rthumb 0.95264 -17.6371
lclavicle 4.7758e-014 -1.59028e-015
lhumerus -2.34364 -45.0845 93.7924
lradius 121.145
lwrist 34.1367
lhand -13.4116 -22.8945
lfingers 7.12502
lthumb 12.6964 6.69959
rfemur -20.8207 -6.03602 17.8745
rtibia 89.5948
rfoot -2.65128 -0.425217
rtoes -6.85236
lfemur 12.4568 2.6036 -20.6507
ltibia 37.7399
lfoot -30.6565 -13.6355
ltoes -1.97614
17
root 4.08831 16.2332 -8.6111 168.665 0.560306 -182.4
lowerback 7.72342 -7.38375 -5.22802
upperback 7.86327 -9.27875 0.291584
thorax 4.85554 -4.57325 3.44181
lowerneck -5.96345 -3.01212 -3.70119
upperneck -2.88955 -3.60094 5.97004
head 0.30467 -1.65764 2.44497
rclavicle -1.26377e-013 2.5842e-014
rhumerus -3.04668 37.7007 -88.3069
rradius 119.038
rwrist 6.12885
rhand -25.9391 12.1508
rfingers 7.12502
rthumb 0.604549 -17.8281
lclavicle -1.26377e-013 2.5842e-014
lhumerus -1.9178 -45.2536 94.0828
lradius 121.194
lwrist 33.9812
lhand -13.7185 -22.9991
lfingers 7.12502
lthumb 12.4005 6.61308
rfemur -22.0619 -6.35432 17.5784
rtibia 91.0453
rfoot -3.16168 -0.555577
rtoes -6.45509
lfemur 13.3259 2.27593 -20.8795
ltibia 37.0565
lfoot -30.5284 -13.7391
ltoes -2.08611
18
root 4.08365 16.2288 -8.68331 168.427 -0.066777 -182.502
lowerback 8.03494 -7.47184 -5.51721
upperback 7.99225 -9.38325 0.261341
thorax 4.88332 -4.62703 3.59428
lowerneck -5.56481 -3.14672 -3.78503
upperneck -3.00816 -3.78648 6.08193
head 0.213235 -1.75802 2.49846
rclavicle -8.24459e-014 3.73715e-014
rhumerus -1.5965 37.7211 -87.5715
rradius 119.249
rwrist 6.03481
rhand -26.2435 11.9106
rfingers 7.12502
rthumb 0.310543 -18.069
lclavicle -8.24459e-014 3.73715e-014
lhumerus -1.48407 -45.3833 94.3628
lradius 121.159
lwrist 33.6984
lhand -14.062 -23.1189
lfingers 7.12502
lthumb 12.0693 6.51301
rfemur -23.3472 -6.61147 17.3597
rtibia 92.2988
rfoot -4.11788 -0.683389
rtoes -3.98033
lfemur 14.0975 1.90954 -21.0661
ltibia 36.4601
lfoot -30.3811 -13.8154
ltoes -2.27678
19
root 4.0806 16.2274 -8.75777 168.212 -0.68435 -182.498
lowerback 8.30411 -6.26035 -5.48849
upperback 8.0756 -9.79663 0.389943
thorax 4.82106 -5.67243 3.69944
lowerneck -5.08954 -3.29452 -3.88452
upperneck -3.15103 -3.99 6.24992
head 0.104109 -1.86861 2.57558
rclavicle 5.76972e-014 -1.47101e-014
rhumerus -0.343235 37.6397 -87.0089
rradius 119.445
rwrist 5.96318
rhand -26.458 11.7045
rfingers 7.12502
rthumb 0.103425 -18.2753
lclavicle 5.76972e-014 -1.47101e-014
lhumerus -1.13847 -45.5224 94.7136
lradius 121.042
lwrist 33.3814
lhand -14.4222 -23.2756
lfingers 7.12502
lthumb 11.722 6.37639
rfemur -24.5762 -6.84287 17.2779
rtibia 93.2458
rfoot -5.30804 -0.837188
rtoes -1.16411
lfemur 14.8384 1.5437 -21.1218
ltibia 35.8781
lfoot -30.1921 -13.8989
ltoes -2.46169
20
root 4.0803 16.2242 -8.83336 167.992 -1.29605 -182.409
lowerback 8.58191 -6.29399 -5.5638
upperback 8.21994 -9.89929 0.402552
thorax 4.85126 -5.74988 3.77771
lowerneck -4.67324 -3.44478 -3.95861
upperneck -3.28531 -4.19539 6.42175
head 0.00776102 -1.97907 2.64976
rclavicle 1.27719e-014 2.38542e-015
rhumerus 0.855063 37.4502 -86.5653
rradius 119.527
rwrist 5.91367
rhand -26.5539 11.5945
rfingers 7.12502
rthumb 0.0107426 -18.3852
lclavicle 1.27719e-014 2.38542e-015
lhumerus -0.719411 -45.6806 94.993
lradius 120.831
lwrist 32.9559
lhand -14.8504 -23.4617
lfingers 7.12502
lthumb 11.309 6.21339
rfemur -25.796 -7.03676 17.3156
rtibia 93.9615
rfoot -6.59148 -1.01006
rtoes 1.00728
lfemur 15.5126 1.17398 -21.0738
ltibia 35.4606
lfoot -30.0785 -13.9975
ltoes -2.69119
21
root 4.08067 16.2178 -8.90947 167.775 -1.92169 -182.272
lowerback 8.88418 -6.34251 -5.61667
upperback 8.34404 -10.0213 0.448555
thorax 4.85192 -5.83537 3.88456
lowerneck -4.21321 -3.59337 -4.04698
upperneck -3.42699 -4.40079 6.56379
head -0.0985642 -2.09124 2.71887
rclavicle -1.10127e-013 3.10104e-014
rhumerus 1.89938 37.2677 -86.2446
rradius 119.542
rwrist 5.88977
rhand -26.6386 11.5548
rfingers 7.12502
rthumb -0.0710688 -18.425
lclavicle -1.10127e-013 3.10104e-014
lhumerus -0.439823 -45.7295 95.4109
lradius 120.56
lwrist 32.4712
lhand -15.1941 -23.7162
lfingers 7.12502
lthumb 10.9776 5.97683
rfemur -26.9812 -7.2264 17.409
rtibia 94.4565
rfoot -7.92976 -1.16044
rtoes 2.63499
lfemur 16.0185 0.764717 -20.9882
ltibia 35.3988
lfoot -30.1084 -14.1218
ltoes -2.69541
22
root 4.084 16.2088 -8.98873 167.577 -2.5382 -182.058
lowerback 9.15322 -6.39669 -5.60266
upperback 8.46061 -10.1425 0.506747
thorax 4.85371 -5.91586 3.96528
lowerneck -3.73528 -3.73499 -4.05114
upperneck -3.5585 -4.60173 6.66661
head -0.207953 -2.20283 2.76112
rclavicle 9.24349e-015 2.78299e-015
rhumerus 2.81373 37.0263 -86.073
rradius 119.52
rwrist 5.88586
rhand -26.5741 11.5519
rfingers 7.12502
rthumb -0.00871282 -18.4278
lclavicle 9.24349e-015 2.78299e-015
lhumerus -0.318512 -45.7118 95.9618
lradius 120.252
lwrist 31.8998
lhand -15.4875 -23.9909
lfingers 7.12502
lthumb 10.6945 5.71695
rfemur -28.1062 -7.29029 17.6337
rtibia 94.6421
rfoot -9.23314 -1.36011
rtoes 3.54116
lfemur 16.4712 0.367748 -20.7932
ltibia 35.4144
lfoot -30.1718 -14.2506
ltoes -2.80534
23
root 4.08783 16.1427 -9.05579 167.389 -3.16592 -181.816
lowerback 9.42189 -6.45331 -5.57385
upperback 8.57024 -10.2664 0.591518
thorax 4.8519 -5.99759 4.06665
lowerneck -3.26951 -3.8791 -4.05735
upperneck -3.68848 -4.80524 6.76178
head -0.314735 -2.31566 2.80233
rclavicle 5.13858e-014 -5.56597e-015
rhumerus 3.67257 36.7789 -85.9066
rradius 119.452
rwrist 5.91948
rhand -26.5379 11.5199
rfingers 7.12502
rthumb 0.0262679 -18.4599
lclavicle 5.13858e-014 -5.56597e-015
lhumerus -0.239419 -45.6609 96.5733
lradius 119.941
lwrist 31.3421
lhand -15.7225 -24.2481
lfingers 7.12502
lthumb 10.4679 5.4713
rfemur -29.554 -7.33316 17.8857
rtibia 94.8557
rfoot -10.4006 -1.48674
rtoes 3.90452
lfemur 16.8058 -0.0712256 -20.5771
ltibia 35.5914
lfoot -30.3169 -14.3362
ltoes -3.27475
24
root 4.0935 16.1351 -9.14223 167.217 -3.81426 -181.552
lowerback 9.6646 -6.52449 -5.51696
upperback 8.6745 -10.4031 0.66512
thorax 4.85338 -6.08255 4.13931
lowerneck -2.80632 -4.02062 -4.00892
upperneck -3.80963 -5.00622 6.84257
head -0.420255 -2.42786 2.82992
rclavicle -4.55217e-014 5.1684e-015
rhumerus 4.37972 36.516 -85.8636
rradius 119.409
rwrist 5.9997
rhand -26.3894 11.5049
rfingers 7.12502
rthumb 0.169629 -18.4748
lclavicle -4.55217e-014 5.1684e-015
lhumerus -0.0930878 -45.642 97.0602
lradius 119.66
lwrist 30.8281
lhand -15.9595 -24.4285
lfingers 7.12502
lthumb 10.2393 5.30231
rfemur -30.5853 -7.53411 18.0896
rtibia 94.4935
rfoot -11.4791 -1.49676
rtoes 4.16256
lfemur 17.2494 -0.514056 -20.3213
ltibia 35.593
lfoot -30.4393 -14.409
ltoes -3.96938
25
root 4.10137 16.1347 -9.23471 167.077 -4.47968 -181.293
lowerback 9.87931 -6.58923 -5.50761
upperback 8.76637 -10.5307 0.766597
thorax 4.87115 -6.16547 4.2626
lowerneck -2.47863 -4.17942 -3.93624
upperneck -3.80864 -5.23356 6.89785
head -0.46369 -2.55074 2.83989
rclavicle 6.35117e-014 -2.78299e-015
rhumerus 4.92813 36.2897 -85.7795
rradius 119.494
rwrist 6.05906
rhand -26.2349 11.3941
rfingers 7.12502
rthumb 0.318843 -18.5854
lclavicle 6.35117e-014 -2.78299e-015
lhumerus 0.175163 -45.7165 97.4311
lradius 119.442
lwrist 30.3889
lhand -16.3066 -24.6004
lfingers 7.12502
lthumb 9.90434 5.14659
rfemur -31.5737 -7.72477 18.2738
rtibia 93.8729
rfoot -12.2841 -1.42302
rtoes 4.76673
lfemur 17.718 -0.936664 -20.0352
ltibia 35.4908
lfoot -30.5168 -14.5227
ltoes -4.55012
26
root 4.11097 16.1405 -9.33276 166.937 -5.15409 -181.014
lowerback 10.1117 -6.66023 -5.47954
upperback 8.83332 -10.6605 0.863376
thorax 4.84886 -6.24466 4.37754
lowerneck -2.27716 -4.34252 -3.81261
upperneck -3.64221 -5.47413 6.91417
head -0.43495 -2.67802 2.82162
rclavicle -3.57812e-015 9.93923e-015
rhumerus 5.27954 36.0765 -85.7438
rradius 119.671
rwrist 6.17135
rhand -26.0365 11.1935
rfingers 7.12502
rthumb 0.510499 -18.7857
lclavicle -3.57812e-015 9.93923e-015
lhumerus 0.481107 -45.8698 97.6698
lradius 119.317
lwrist 30.0575
lhand -16.6943 -24.6705
lfingers 7.12502
lthumb 9.53027 5.09396
rfemur -32.4906 -7.90222 18.4594
rtibia 92.9491
rfoot -12.9256 -1.08739
rtoes 5.40145
lfemur 18.3857 -1.37072 -19.7148
ltibia 34.9625
lfoot -30.3812 -14.6406
ltoes -5.1721
27
root 4.12092 16.1484 -9.43542 166.822 -5.85667 -180.774
lowerback 10.3232 -6.74106 -5.49945
upperback 8.89483 -10.8033 0.953264
thorax 4.84256 -6.33212 4.50836
lowerneck -2.22745 -4.50519 -3.71025
upperneck -3.35786 -5.7143 6.96241
head -0.341487 -2.80075 2.81182
rclavicle -8.62725e-014 3.89618e-014
rhumerus 5.68567 35.9211 -85.5744
rradius 119.865
rwrist 6.17168
rhand -25.843 10.8599
rfingers 7.12502
rthumb 0.697351 -19.1187
lclavicle -8.62725e-014 3.89618e-014
lhumerus 0.83565 -46.0135 97.8234
lradius 119.245
lwrist 29.8334
lhand -17.0417 -24.7052
lfingers 7.12502
lthumb 9.1951 5.07434
rfemur -33.353 -8.08919 18.5628
rtibia 91.8184
rfoot -13.6855 -0.637448
rtoes 5.41535
lfemur 19.1085 -1.8164 -19.4277
ltibia 34.2733
lfoot -30.175 -14.8062
ltoes -5.55753
